<?xml version="1.0" encoding="utf-8"?>
<!-- Generator: Adobe Illustrator 25.4.1, SVG Export Plug-In . SVG Version: 6.00 Build 0)  -->
<svg version="1.1" id="Layer_1" xmlns="http://www.w3.org/2000/svg" xmlns:xlink="http://www.w3.org/1999/xlink" x="0px" y="0px"
	 viewBox="0 0 615.2 371" style="enable-background:new 0 0 615.2 371;" xml:space="preserve">
<style type="text/css">
	.st0{fill:none;stroke:#7D2E8D;stroke-width:2;stroke-miterlimit:2;stroke-opacity:0.5;}
	.st1{fill:none;stroke:#E2811C;stroke-width:2;stroke-miterlimit:2;stroke-opacity:0.5;}
	.st2{fill:none;stroke:#0071BC;stroke-width:2;stroke-miterlimit:2;stroke-opacity:0.5;}
	.st3{fill:none;stroke:#000000;}
	.st4{stroke:#000000;}
	.st5{fill:#2A3F5F;}
	.st6{font-family:'Verdana';}
	.st7{font-size:12px;}
	.st8{font-size:14px;}
	.st9{fill-opacity:0;stroke:#000000;stroke-opacity:0;}
	.st10{enable-background:new    ;}
	.st11{fill:#7D2E8D;}
	.st12{fill:#E2811C;}
	.st13{fill:#0071BC;}
</style>
<g>
</g>
<g>
	<g transform="translate(80,100)">
		<g>
			<g>
				<g>
					<path class="st0" d="M-8.5,204.1H2.1v5.3h10.6V220h10.5v-10.6h10.6v-5.3h10.5v-53h10.6v-37.1h10.5V92.9H76V61.1h10.5v-5.3h10.6
						V8.1h10.5V-97.8h10.6v37.1h10.6v74.2h10.6v53h10.6v31.8h10.5v47.7H171V167h10.6v26.5h10.6v15.9h10.6v5.3h10.6l0,0h10.6v5.3
						h10.6l0,0"/>
				</g>
			</g>
			<g>
				<g>
					<path class="st1" d="M-8.3,204.2H2.2v-19h10.5v-19h10.6V160h10.5v-47.4h10.5v-6.3H55V20.9h10.5v15.8h10.6v-56.9h10.6v-22.1
						h10.6v-19h10.6v50.6h10.6v82.2h10.6v41.1h10.6v72.7H150V201h10.6v3.2h10.6v9.5h10.6v-3.2h10.6v-3.2h10.6v6.3h10.6v3.2h10.6v3.2
						h10.6l0,0"/>
				</g>
			</g>
			<g>
				<g>
					<path class="st2" d="M-8.2,140.1H2.3v-20.8h10.6V56.8h10.6v-59H34v-34.7h10.6V-23h10.5v-3.5h10.6V4.8h10.6v-17.3h10.6v79.8
						h10.6v79.8h10.5v27.8h10.6v17.4H129v-7h10.6v20.8h10.6l0,0h10.6v10.4h10.6v-3.5h10.6v3.5h10.6l0,0h10.6l0,0h10.6l0,0H224v3.5
						h10.6l0,0"/>
				</g>
			</g>
		</g>
	</g>
</g>
<path class="st3" d="M70.5,320.5h244"/>
<path class="st3" d="M71,0v320"/>
<g>
	<path class="st4" d="M71.7,321v4"/>
	<path class="st4" d="M132.4,321v4"/>
	<path class="st4" d="M193,321v4"/>
	<path class="st4" d="M253.7,321v4"/>
	<path class="st4" d="M314.4,321v4"/>
	<g>
		<text transform="matrix(1 0 0 1 62.9413 339.4)" class="st5 st6 st7">−1</text>
	</g>
	<g>
		<text transform="matrix(1 0 0 1 117.6342 339.4)" class="st5 st6 st7">−0.5</text>
	</g>
	<g>
		<text transform="matrix(1 0 0 1 189.2314 339.4)" class="st5 st6 st7">0</text>
	</g>
	<g>
		<text transform="matrix(1 0 0 1 243.9244 339.4)" class="st5 st6 st7">0.5</text>
	</g>
	<g>
		<text transform="matrix(1 0 0 1 310.6115 339.4)" class="st5 st6 st7">1</text>
	</g>
</g>
<g>
	<path class="st4" d="M70.5,320h-4"/>
	<path class="st4" d="M70.5,277.1h-4"/>
	<path class="st4" d="M70.5,234.2h-4"/>
	<path class="st4" d="M70.5,191.3h-4"/>
	<path class="st4" d="M70.5,148.4h-4"/>
	<path class="st4" d="M70.5,105.4h-4"/>
	<path class="st4" d="M70.5,62.5h-4"/>
	<path class="st4" d="M70.5,19.6h-4"/>
	<g>
		<text transform="matrix(1 0 0 1 56.517 324.2)" class="st5 st6 st7">0</text>
	</g>
	<g>
		<text transform="matrix(1 0 0 1 36.8939 281.29)" class="st5 st6 st7">0.02</text>
	</g>
	<g>
		<text transform="matrix(1 0 0 1 36.8939 238.38)" class="st5 st6 st7">0.04</text>
	</g>
	<g>
		<text transform="matrix(1 0 0 1 36.8939 195.47)" class="st5 st6 st7">0.06</text>
	</g>
	<g>
		<text transform="matrix(1 0 0 1 36.8939 152.56)" class="st5 st6 st7">0.08</text>
	</g>
	<g>
		<text transform="matrix(1 0 0 1 44.5229 109.65)" class="st5 st6 st7">0.1</text>
	</g>
	<g>
		<text transform="matrix(1 0 0 1 36.8939 66.74)" class="st5 st6 st7">0.12</text>
	</g>
	<g>
		<text transform="matrix(1 0 0 1 36.8939 23.83)" class="st5 st6 st7">0.14</text>
	</g>
</g>
<g>
	<g transform="translate(377,100)">
		<g>
			<g>
				<g>
					<path class="st0" d="M-8.5,204.1H2.1v-5.3h10.6v5.3h10.5v-15.9h10.6v-10.6h10.5V135h10.6v26.5h10.5v-53.1H76V81.9h10.5v47.8
						h10.6V97.9h10.5v10.6h10.6V92.5h10.6v10.6h10.6V55.4h10.6V7.6h10.5v100.9H171V135h10.6v5.3h10.6v-31.9h10.6V60.7h10.6V135h10.6
						v37.2h10.6l0,0"/>
				</g>
			</g>
			<g>
				<g>
					<path class="st1" d="M-8.3,210.5H2.2v-15.8h10.5l0,0h10.6v-15.8h10.5v-44.3h10.5v-6.3H55v3.2h10.5V96.6h10.6v-3.2h10.6v-9.5
						h10.6V68.1h10.6v28.5h10.6v9.5h10.6v-9.5h10.6l0,0H150V83.9h10.6v9.5h10.6v6.3h10.6v6.3h10.6v41.1h10.6v-31.6h10.6v57h10.6
						v12.7h10.6l0,0"/>
				</g>
			</g>
			<g>
				<g>
					<path class="st2" d="M-8.2,216.5H2.3v-24.7h10.6v-45.9h10.6v17.7H34v-31.8h10.6v21.2h10.5V82.4h10.6V100h10.6V93h10.6v-3.5
						h10.6V64.7h10.5v-3.5h10.6v21.2H129v-7.1h10.6v45.9h10.6v-7.1h10.6v10.6h10.6v-7.1h10.6v10.6h10.6v21.2h10.6v-21.2h10.6v42.4
						H224v38.8h10.6l0,0"/>
				</g>
			</g>
		</g>
	</g>
</g>
<path class="st3" d="M367.5,320.5h244"/>
<path class="st3" d="M368,0v320"/>
<g>
	<path class="st4" d="M368.7,321v4"/>
	<path class="st4" d="M429.4,321v4"/>
	<path class="st4" d="M490,321v4"/>
	<path class="st4" d="M550.7,321v4"/>
	<path class="st4" d="M611.4,321v4"/>
	<g>
		<text transform="matrix(1 0 0 1 359.9413 339.4)" class="st5 st6 st7">−1</text>
	</g>
	<g>
		<text transform="matrix(1 0 0 1 414.6342 339.4)" class="st5 st6 st7">−0.5</text>
	</g>
	<g>
		<text transform="matrix(1 0 0 1 486.2314 339.4)" class="st5 st6 st7">0</text>
	</g>
	<g>
		<text transform="matrix(1 0 0 1 540.9244 339.4)" class="st5 st6 st7">0.5</text>
	</g>
	<g>
		<text transform="matrix(1 0 0 1 607.6115 339.4)" class="st5 st6 st7">1</text>
	</g>
</g>
<g>
	<path class="st4" d="M367.5,320h-4"/>
	<path class="st4" d="M367.5,277.1h-4"/>
	<path class="st4" d="M367.5,234.2h-4"/>
	<path class="st4" d="M367.5,191.3h-4"/>
	<path class="st4" d="M367.5,148.4h-4"/>
	<path class="st4" d="M367.5,105.4h-4"/>
	<path class="st4" d="M367.5,62.5h-4"/>
	<path class="st4" d="M367.5,19.6h-4"/>
	<g>
		<text transform="matrix(1 0 0 1 353.517 324.2)" class="st5 st6 st7">0</text>
	</g>
	<g>
		<text transform="matrix(1 0 0 1 333.894 281.29)" class="st5 st6 st7">0.02</text>
	</g>
	<g>
		<text transform="matrix(1 0 0 1 333.894 238.38)" class="st5 st6 st7">0.04</text>
	</g>
	<g>
		<text transform="matrix(1 0 0 1 333.894 195.47)" class="st5 st6 st7">0.06</text>
	</g>
	<g>
		<text transform="matrix(1 0 0 1 333.894 152.56)" class="st5 st6 st7">0.08</text>
	</g>
	<g>
		<text transform="matrix(1 0 0 1 341.5229 109.65)" class="st5 st6 st7">0.1</text>
	</g>
	<g>
		<text transform="matrix(1 0 0 1 333.894 66.74)" class="st5 st6 st7">0.12</text>
	</g>
	<g>
		<text transform="matrix(1 0 0 1 333.894 23.83)" class="st5 st6 st7">0.14</text>
	</g>
</g>
<g>
	<text transform="matrix(1 0 0 1 120.2739 366.7062)" class="st5 st6 st8">Active-Passive Index</text>
</g>
<g>
	<text transform="matrix(1 0 0 1 425.7744 366.7062)" class="st5 st6 st8">Congruence Index</text>
</g>
<g>
	<text transform="matrix(6.123234e-17 -1 1 6.123234e-17 12.0897 228.876)" class="st5 st6 st8">Fraction of Neurons</text>
</g>
<g>
	<g transform="rotate(0,606,110.5)">
		<g transform="translate(592,100)">
			<rect x="-8" y="-99.5" class="st9" width="27" height="20"/>
			<g class="st10">
				<text transform="matrix(1 0 0 1 -6.4531 -84)" class="st11 st6 st8">AIP</text>
			</g>
		</g>
	</g>
</g>
<g>
	<g transform="rotate(0,609.5,119.5)">
		<g transform="translate(599,100)">
			<rect x="-8" y="-99.5" class="st9" width="20" height="38"/>
			<g class="st10">
				<text transform="matrix(1 0 0 1 -6.4473 -65.8)" class="st12 st6 st8">F5</text>
			</g>
		</g>
	</g>
</g>
<g>
	<g transform="rotate(0,607.5,128.5)">
		<g transform="translate(595,100)">
			<rect x="-8" y="-99.5" class="st9" width="24" height="56"/>
			<g class="st10">
				<text transform="matrix(1 0 0 1 -6.4502 -47.6)" class="st13 st6 st8">M1</text>
			</g>
		</g>
	</g>
</g>
</svg>
